<?xml version="1.0" standalone="no"?>
<!DOCTYPE svg PUBLIC "-//W3C//DTD SVG 20010904//EN"
 "http://www.w3.org/TR/2001/REC-SVG-20010904/DTD/svg10.dtd">
<svg version="1.0" xmlns="http://www.w3.org/2000/svg"
 width="700.000000pt" height="700.000000pt" viewBox="0 0 700.000000 700.000000"
 preserveAspectRatio="xMidYMid meet">
<metadata>
Created by potrace 1.11, written by Peter Selinger 2001-2013
</metadata>
<g transform="translate(0.000000,700.000000) scale(0.100000,-0.100000)"
fill="#000000" stroke="none">
<path d="M353 3903 c1 -1512 6 -2761 10 -2778 63 -250 170 -427 342 -564 107
-85 287 -172 390 -188 17 -2 48 -9 70 -14 23 -5 1006 -8 2365 -6 l2325 3 76
22 c158 45 276 108 390 205 156 133 257 306 316 542 4 17 9 1266 10 2778 l3
2747 -3150 0 -3150 0 3 -2747z m5977 -116 c-1 -2189 -3 -2552 -15 -2612 -46
-221 -220 -409 -445 -481 -52 -16 -189 -17 -2345 -19 -1861 -1 -2302 1 -2355
12 -229 46 -430 246 -480 475 -16 73 -17 262 -17 2623 l0 2545 2829 -1 2828 0
0 -2542z"/>
<path d="M1410 4489 c-244 -26 -393 -114 -480 -284 -54 -105 -60 -160 -60
-565 0 -380 6 -458 42 -544 97 -229 304 -338 632 -331 199 4 346 55 446 155
67 67 102 130 131 235 20 71 22 107 24 312 1 127 -1 237 -6 244 -6 11 -72 14
-309 14 -166 0 -306 -3 -313 -7 -7 -4 -11 -57 -12 -157 -1 -130 1 -151 14
-152 9 0 70 -1 136 -2 l120 -2 -2 -70 c-5 -178 -68 -238 -253 -238 -140 0
-214 61 -237 193 -3 19 -6 175 -7 345 -1 288 0 314 20 372 11 34 29 72 40 84
34 39 102 62 181 62 86 -1 131 -15 165 -51 29 -31 56 -102 52 -138 -1 -13 1
-25 4 -25 31 -7 371 -4 385 3 18 9 18 11 1 128 -8 61 -41 156 -69 206 -30 51
-99 120 -145 143 -37 19 -134 53 -159 56 -9 0 -36 4 -61 8 -66 11 -205 14
-280 6z"/>
<path d="M4930 4480 l-35 -5 -3 -839 c-2 -657 1 -841 10 -847 7 -5 181 -7 388
-5 345 3 381 5 453 24 212 58 331 170 383 362 15 57 18 115 18 460 0 430 -3
460 -60 577 -29 59 -100 138 -159 175 -45 28 -162 73 -216 82 -95 16 -691 29
-779 16z m688 -361 c58 -18 85 -48 110 -119 11 -28 11 -694 1 -739 -13 -59
-42 -97 -92 -123 -37 -18 -61 -21 -189 -23 l-148 -1 0 506 c0 279 2 509 5 512
10 10 277 -1 313 -13z"/>
<path d="M2257 4466 c-3 -8 -6 -391 -6 -850 l0 -836 198 0 c172 0 200 2 205
16 3 9 6 146 6 305 l0 290 76 -2 76 -2 145 -296 c79 -162 149 -298 155 -302 6
-4 192 -7 414 -7 l404 0 2 486 3 487 54 -120 c30 -66 78 -169 107 -230 129
-273 164 -348 164 -351 0 -4 108 -235 119 -254 7 -12 41 -15 197 -16 105 -1
194 2 201 8 17 14 16 1663 -2 1678 -8 7 -78 9 -196 8 l-184 -3 0 -457 c0 -252
-3 -458 -7 -458 -4 0 -10 9 -13 21 -4 11 -37 84 -75 162 -64 135 -102 214
-175 372 -18 39 -65 136 -103 218 l-71 147 -208 -2 -208 -3 -5 -839 -5 -839
-68 143 c-38 78 -109 225 -159 327 -50 101 -89 185 -87 186 2 1 26 13 52 27
100 52 168 143 192 259 17 85 12 352 -9 431 -32 124 -116 215 -238 260 -71 26
-185 46 -258 45 l-55 0 0 -170 0 -170 70 0 c39 0 76 -4 83 -8 9 -6 12 -50 12
-165 0 -230 -15 -248 -209 -251 -97 -1 -120 2 -156 19 -23 11 -47 32 -54 46
-15 33 -17 332 -2 347 6 6 43 11 83 11 l73 1 0 170 0 170 -266 3 c-225 2 -268
0 -272 -12z"/>
<path d="M863 2624 c-15 -7 -18 9 98 -462 55 -224 102 -416 105 -427 2 -11 37
-155 78 -320 41 -165 84 -342 97 -393 l22 -92 210 2 210 3 3 25 c2 14 8 45 14
70 5 25 12 56 14 70 3 14 35 174 72 355 37 182 74 368 84 415 9 47 20 78 23
70 4 -11 98 -473 151 -745 2 -11 11 -54 19 -95 9 -41 18 -87 21 -103 13 -74
-6 -68 224 -65 l207 3 21 85 c43 173 125 506 129 525 25 111 50 204 54 199 3
-3 6 -186 6 -407 l0 -402 194 -3 c126 -1 198 1 205 8 7 7 11 113 11 302 l0
292 76 1 76 1 149 -300 149 -301 413 -3 412 -2 0 300 0 301 41 56 42 56 176
-354 176 -354 639 -3 c422 -1 643 1 651 8 9 7 13 57 13 170 l1 160 -339 0
-340 0 37 58 c20 31 57 89 81 127 25 39 82 127 126 196 100 155 98 151 117
180 9 13 77 119 151 235 l135 210 -2 170 c-1 93 -3 172 -3 177 -1 4 -291 7
-644 7 l-643 0 -65 -91 c-108 -152 -228 -320 -298 -421 l-47 -68 -3 290 -2
290 -203 -2 -202 -3 -5 -829 -5 -828 -146 298 c-156 320 -167 344 -149 344 16
0 113 64 140 92 76 79 102 164 103 341 2 188 -8 266 -42 341 -66 145 -210 224
-444 241 l-87 6 -1 -41 c0 -22 0 -96 0 -165 0 -69 0 -131 0 -138 1 -10 20 -13
72 -12 44 1 76 -4 83 -11 9 -8 12 -59 11 -170 -2 -230 -10 -239 -222 -239
l-133 1 -37 36 -36 37 -2 160 c-1 89 2 166 6 173 5 8 35 13 81 14 40 1 75 2
78 3 3 0 4 52 3 114 0 61 -2 140 -2 175 l-1 62 -365 0 -365 0 -10 -22 c-8 -20
-61 -256 -74 -328 -2 -14 -16 -77 -30 -140 -40 -180 -95 -438 -101 -469 -6
-33 -23 -81 -24 -66 -1 6 -23 120 -50 255 -28 135 -52 256 -55 270 -2 14 -17
84 -31 155 -15 72 -29 139 -31 150 -2 11 -6 31 -9 45 -4 14 -11 53 -17 88
l-11 62 -203 0 c-156 0 -204 -3 -205 -12 -1 -15 0 -10 -29 -148 -12 -58 -24
-116 -26 -130 -3 -14 -11 -56 -20 -95 -8 -38 -17 -81 -20 -95 -9 -45 -33 -164
-38 -190 -11 -50 -37 -181 -42 -207 -3 -14 -11 -52 -18 -84 -8 -32 -12 -60
-10 -63 2 -4 0 -3 -5 1 -8 6 -49 188 -87 382 -3 12 -11 51 -19 85 -8 33 -16
72 -19 86 -2 14 -26 125 -52 248 l-48 222 -190 -1 c-105 0 -196 -3 -203 -5z
m4745 -408 c-183 -286 -308 -481 -466 -725 l-74 -114 -144 292 c-79 160 -144
296 -144 302 0 6 49 77 110 158 l110 147 323 0 324 0 -39 -60z"/>
</g>
</svg>
